<svg xmlns="http://www.w3.org/2000/svg" version="1.1" viewBox="-5.0 -10.0 110.0 135.0">
 <path d="m70.672 18.781c11.391 0 20.648 9.2617 20.648 20.648 0 3.0703-0.67187 5.9805-1.8789 8.6016-2.4219-1.2188-5.1289-1.9219-8.0117-1.9805-4.8906-0.10156-9.5117 1.6797-13.039 4.9297-0.80859-6.3086-3.7305-12.141-8.3594-16.621-2.1797-2.1094-4.6484-3.8281-7.3203-5.1211 3.5586-6.2383 10.27-10.461 17.961-10.461zm10.719 29.578c-5.0703-0.089844-9.8281 2.1016-13.039 6.0312-0.30078 0.37109-0.80859 0.51953-1.2617 0.35938-0.44922-0.14844-0.76953-0.57031-0.78125-1.0508-0.5-13.988-11.859-24.949-25.871-24.949s-25.891 11.621-25.891 25.891c0 1.2891 0.10156 2.6016 0.28906 3.8711 0.050781 0.32812-0.050782 0.67188-0.26953 0.92188s-0.53906 0.39844-0.87109 0.39844h-0.5c-5.8984 0-10.691 4.8008-10.691 10.691 0 5.8906 4.8008 10.691 10.691 10.691h67.879c8.9297 0 16.301-7.2617 16.43-16.18 0.12891-9.0195-7.0898-16.5-16.102-16.672z"/>
<text x="0.0" y="117.5" font-size="5.0" font-weight="bold" font-family="Arbeit Regular, Helvetica, Arial-Unicode, Arial, Sans-serif" fill="#000000">Created by Jang Jeong Eui</text><text x="0.0" y="122.5" font-size="5.0" font-weight="bold" font-family="Arbeit Regular, Helvetica, Arial-Unicode, Arial, Sans-serif" fill="#000000">from Noun Project</text></svg>