<?xml version="1.0" standalone="no"?>
<!DOCTYPE svg PUBLIC "-//W3C//DTD SVG 20010904//EN"
 "http://www.w3.org/TR/2001/REC-SVG-20010904/DTD/svg10.dtd">
<svg version="1.0" xmlns="http://www.w3.org/2000/svg"
 width="410.000000pt" height="441.000000pt" viewBox="0 0 410.000000 441.000000"
 preserveAspectRatio="xMidYMid meet">

<g transform="translate(0.000000,441.000000) scale(0.100000,-0.100000)"
fill="#000000" stroke="none">
<path d="M2800 4375 c-198 -40 -377 -146 -502 -299 -29 -35 -61 -78 -71 -95
l-18 -30 59 -30 c282 -142 527 -478 584 -799 6 -37 12 -68 14 -70 1 -2 26 15
55 37 232 176 524 208 810 87 12 -5 21 6 37 49 64 167 69 394 14 565 -47 141
-108 238 -221 350 -106 105 -197 162 -321 204 -141 47 -305 58 -440 31z"/>
<path d="M1590 3970 c-410 -48 -774 -337 -906 -721 -48 -141 -58 -204 -58
-379 -1 -91 -5 -171 -9 -177 -5 -8 -29 -13 -55 -13 -111 0 -222 -49 -308 -134
-144 -145 -173 -341 -78 -528 57 -112 191 -206 324 -228 45 -8 519 -10 1535
-8 1379 3 1474 5 1530 22 307 91 514 357 515 662 1 310 -196 571 -500 665
-106 33 -264 33 -370 0 -115 -35 -204 -87 -290 -168 -43 -40 -85 -73 -93 -73
-28 0 -47 30 -47 75 0 111 -60 322 -127 445 -101 187 -273 354 -458 447 -181
91 -414 134 -605 113z"/>
</g>
</svg>
